# xmcd CD database file
#
# Track frame offsets:
#	150
#	42745
#	71389
#	107754
#	149708
#	186040
#	222672
#	266918
#
# Disc length: 4044 seconds
#
# Revision: 1
# Processed by: cddbd v1.5.1PL2 Copyright (c) Steve Scherf et al.
# Submitted via: CDex 1.51
#
DISCID=880fca08
DTITLE=Swiss Jazz Orchestra - Paul Klee
DYEAR=2006
DGENRE=Jazz
TTITLE0=Rosenwind 
TTITLE1=Übermut 
TTITLE2=Büste eines Kindes 
TTITLE3=Ad parnassum 
TTITLE4=Individualisierte Höhenmessung der Lagen 
TTITLE5=Der Seiltänzer 
TTITLE6=Tod und Feuer 
TTITLE7=Paukenspieler 
EXTD=YEAR: 2006
EXTT0=
EXTT1=
EXTT2=
EXTT3=
EXTT4=
EXTT5=
EXTT6=
EXTT7=
PLAYORDER=
